[Header]
FileType HTR
DataType HTRS
FileVersion 1
NumSegments 22
NumFrames 8
DataFrameRate 24
EulerRotationOrder ZYX
CalibrationUnits mm
RotationUnits Degrees
GlobalAxisofGravity Y
BoneLengthAxis Y
ScaleFactor 1.0
[SegmentNames&Hierarchy]
reference	GLOBAL
Hips	reference
Spine	Hips
Spine1	Spine
Neck	Spine1
Head	Neck
LeftShoulder	Spine1
LeftArm	LeftShoulder
LeftForeArm	LeftArm
LeftHand	LeftForeArm
RightShoulder	Spine1
RightArm	RightShoulder
RightForeArm	RightArm
RightHand	RightForeArm
LeftUpLeg	Hips
LeftLeg	LeftUpLeg
LeftFoot	LeftLeg
LeftToeBase	LeftFoot
RightUpLeg	Hips
RightLeg	RightUpLeg
RightFoot	RightLeg
RightToeBase	RightFoot
[BasePosition]
reference	0	0	0	0	0	0	1
Hips	0	0	0	0	0	0	1
Spine	0	0	0	0	-0	90	1
Spine1	0	0	0	0	0	0	1
Neck	0	0	0	-7.352327771	-7.352327771	90	1
Head	0	0	0	0	-0	90	1
LeftShoulder	0	0	0	0	0	0	1
LeftArm	0	0	0	0	0	0	1
LeftForeArm	0	0	0	0	0	0	1
LeftHand	0	0	0	0	0	0	1
RightShoulder	0	0	0	0	-0	180	1
RightArm	0	0	0	0	-0	180	1
RightForeArm	0	0	0	0	-0	180	1
RightHand	0	0	0	0	-0	180	1
LeftUpLeg	0	0	0	0	-0	-90	1
LeftLeg	0	0	0	0	-0	-90	1
LeftFoot	0	0	0	66.57146043	-66.57146043	-90	1
LeftToeBase	0	0	0	0	-90	0	1
RightUpLeg	0	0	0	0	-0	-90	1
RightLeg	0	0	0	0	-0	-90	1
RightFoot	0	0	0	66.57146043	-66.57146043	-90	1
RightToeBase	0	0	0	0	-90	0	1
[reference]
28	0	0	0	0	-0	0	1.0
29	0	0	0	0	-0	0	1.0
30	0	0	0	0	-0	0	1.0
31	0	0	0	0	-0	0	1.0
32	0	0	0	0	-0	0	1.0
33	0	0	0	0	-0	0	1.0
34	0	0	0	0	-0	0	1.0
35	0	0	0	0	-0	0	1.0
[Hips]
28	-0.8275455236	8.412322998	6.185805321	-6.360085487	-108.7347336	12.7085762	1.0
29	-0.7958389521	8.305763245	6.078658581	-3.869543791	-109.0231628	10.94907856	1.0
30	-0.770953238	8.276647568	5.92901516	-0.21489802	-109.4736023	7.52432251	1.0
31	-0.7390768528	8.262688637	5.740060329	2.586685181	-109.9652634	4.697616577	1.0
32	-0.7071555257	8.296998978	5.507948399	5.176322937	-109.9623718	2.054270267	1.0
33	-0.681482017	8.353210449	5.232971191	5.645503998	-109.3333054	1.099725246	1.0
34	-0.6576812863	8.425835609	4.941466331	3.826658249	-107.967865	1.517808914	1.0
35	-0.6334961653	8.53092289	4.668554783	4.640712738	-106.1526184	-0.1656923741	1.0
[Spine]
28	0	0.7457100153	0	-3.920532942	1.473494768	-89.45249176	1.0
29	0	0.7457100153	0	-4.694272995	1.866673708	-90.25402069	1.0
30	0	0.7457100153	0	-5.024605274	2.509586573	-91.40367889	1.0
31	0	0.7457100153	0	-4.993327618	3.176617146	-92.04072571	1.0
32	0	0.7457100153	0	-5.403131008	3.41769886	-92.58442688	1.0
33	0	0.7457100153	0	-5.477510929	3.470782995	-92.57763672	1.0
34	0	0.7457100153	0	-5.215801239	3.053192139	-91.57492065	1.0
35	0	0.7457100153	0	-5.242515087	2.208616972	-91.58795166	1.0
[Spine1]
28	0	2.140589952	0	5.824988365	0.3475395441	2.558695316	1.0
29	0	2.140589952	0	6.292448521	0.4831399322	2.600934505	1.0
30	0	2.140589952	0	6.534667969	0.744500041	1.837101936	1.0
31	0	2.140589952	0	6.239063263	1.053621769	0.7865591645	1.0
32	0	2.140589952	0	5.897708416	1.165620327	0.4905350804	1.0
33	0	2.140589952	0	5.6776371	1.214597702	-0.3314800858	1.0
34	0	2.140589952	0	5.957893848	1.13247788	-1.554620624	1.0
35	0	2.140589952	0	6.044998169	0.8723620772	-1.903937936	1.0
[Neck]
28	0	2.32246995	0	-18.69753265	-0.9147418737	-89.51773071	1.0
29	0	2.32246995	0	-19.79372597	0.5166243911	-89.65518188	1.0
30	0	2.32246995	0	-21.00062561	0.4133167565	-89.55914307	1.0
31	0	2.32246995	0	-21.64589882	0.4352093041	-89.44393921	1.0
32	0	2.32246995	0	-21.75434494	0.8379145861	-89.92492676	1.0
33	0	2.32246995	0	-21.31186104	-4.818471909	-88.20903015	1.0
34	0	2.32246995	0	-20.74946594	-4.990168571	-88.08647919	1.0
35	0	2.32246995	0	-19.75428009	-4.086912155	-88.29465485	1.0
[Head]
28	0	1.409579992	0.1818799973	-5.476093292	-5.733446598	-89.9155426	1.0
29	0	1.409579992	0.1818799973	-5.042740345	-7.204797268	-89.73340607	1.0
30	0	1.409579992	0.1818799973	-4.47098732	-7.385532856	-89.32594299	1.0
31	0	1.409579992	0.1818799973	-4.321063995	-7.410311222	-89.09105682	1.0
32	0	1.409579992	0.1818799973	-4.157950878	-7.839447021	-88.45911407	1.0
33	0	1.409579992	0.1818799973	-4.130126476	-0.6066638231	-93.0512619	1.0
34	0	1.409579992	0.1818799973	-3.152792454	0.6793125868	-95.29263306	1.0
35	0	1.409579992	0.1818799973	-2.483764172	0.7924265265	-97.06904602	1.0
[LeftShoulder]
28	0.3668199778	1.946700096	-0.02662999928	-16.05105782	-13.20956516	-2.960772514	1.0
29	0.3668199778	1.946700096	-0.02662999928	-16.23015022	-13.24777889	-2.989282131	1.0
30	0.3668199778	1.946700096	-0.02662999928	-16.28125763	-13.22803688	-2.638190746	1.0
31	0.3668199778	1.946700096	-0.02662999928	-16.29543495	-13.26945305	-2.515216351	1.0
32	0.3668199778	1.946700096	-0.02662999928	-16.36599541	-13.03975868	-2.734964371	1.0
33	0.3668199778	1.946700096	-0.02662999928	-16.26235962	-12.91158772	-2.977324009	1.0
34	0.3668199778	1.946700096	-0.02662999928	-16.43533897	-12.61678696	-2.492340565	1.0
35	0.3668199778	1.946700096	-0.02662999928	-17.05478287	-12.289505	-2.228873968	1.0
[LeftArm]
28	1.140689969	0	0	42.98847961	11.46562099	-68.05052948	1.0
29	1.140689969	0	0	43.22097015	11.01299095	-67.96222687	1.0
30	1.140689969	0	0	43.50979614	10.58400917	-67.98470306	1.0
31	1.140689969	0	0	43.90382004	10.45421028	-67.95353699	1.0
32	1.140689969	0	0	43.74810028	10.43574905	-67.95081329	1.0
33	1.140689969	0	0	44.0086937	10.20312691	-67.65539551	1.0
34	1.140689969	0	0	44.36467743	9.602788925	-67.8684082	1.0
35	1.140689969	0	0	45.07494736	9.47783947	-67.83057404	1.0
[LeftForeArm]
28	2.749800205	0	0	-135.4443512	-45.73800659	156.5143738	1.0
29	2.749800205	0	0	-135.751358	-45.87346268	156.7069702	1.0
30	2.749800205	0	0	-136.0012512	-45.97975922	156.7631836	1.0
31	2.749800205	0	0	-136.1481476	-46.10901642	156.7286682	1.0
32	2.749800205	0	0	-137.1742249	-46.34340286	157.3937073	1.0
33	2.749800205	0	0	-137.0866699	-45.81438065	157.5089111	1.0
34	2.749800205	0	0	-137.3967438	-45.5246582	158.0364838	1.0
35	2.749800205	0	0	-139.5089417	-45.72161102	159.316452	1.0
[LeftHand]
28	2.295179844	0	0	-9.317749977	-24.01524353	6.607185364	1.0
29	2.295179844	0	0	-9.023457527	-23.80730057	6.340657234	1.0
30	2.295179844	0	0	-8.858947754	-23.76999664	5.467432976	1.0
31	2.295179844	0	0	-8.903162003	-23.61543465	5.358358383	1.0
32	2.295179844	0	0	-8.372615814	-23.57973862	5.454473495	1.0
33	2.295179844	0	0	-8.635150909	-23.27629471	5.607117176	1.0
34	2.295179844	0	0	-8.185064316	-23.0411377	5.653924942	1.0
35	2.295179844	0	0	-7.386222839	-22.86584473	5.303287983	1.0
[RightShoulder]
28	-0.3601199985	1.946700096	-0.02662999928	-6.120920181	4.004117966	177.5063019	1.0
29	-0.3601199985	1.946700096	-0.02662999928	-7.942821503	3.914797783	176.7842407	1.0
30	-0.3601199985	1.946700096	-0.02662999928	-7.845550537	4.215536118	177.0043335	1.0
31	-0.3601199985	1.946700096	-0.02662999928	-7.806714058	4.473390579	177.3156433	1.0
32	-0.3601199985	1.946700096	-0.02662999928	-7.06502533	4.981055737	177.7515869	1.0
33	-0.3601199985	1.946700096	-0.02662999928	-8.11208725	4.8195014	176.502182	1.0
34	-0.3601199985	1.946700096	-0.02662999928	-8.644996643	4.879903793	176.4860687	1.0
35	-0.3601199985	1.946700096	-0.02662999928	-8.996746063	4.525696754	176.1690979	1.0
[RightArm]
28	-1.140689969	0	0	54.59182358	2.187594414	-108.1344528	1.0
29	-1.140689969	0	0	55.08926773	0.7999887466	-106.7306747	1.0
30	-1.140689969	0	0	55.65401459	0.8586491942	-106.0415039	1.0
31	-1.140689969	0	0	56.55551529	0.8888250589	-105.4051895	1.0
32	-1.140689969	0	0	57.21779251	1.543939114	-105.3570099	1.0
33	-1.140689969	0	0	57.18618774	0.7881753445	-104.6019669	1.0
34	-1.140689969	0	0	56.99234009	0.598088026	-104.9422607	1.0
35	-1.140689969	0	0	56.57461166	0.3927028775	-105.2559357	1.0
[RightForeArm]
28	-2.749800205	0	0	-102.203064	46.45071793	-322.5379333	1.0
29	-2.749800205	0	0	-102.241684	47.07883072	-322.2283936	1.0
30	-2.749800205	0	0	-101.4226456	47.41744232	-321.651062	1.0
31	-2.749800205	0	0	-100.4136047	48.00588989	-320.4448242	1.0
32	-2.749800205	0	0	-99.3470993	47.9371109	-319.3327332	1.0
33	-2.749800205	0	0	-100.7620392	48.72707748	-319.8657227	1.0
34	-2.749800205	0	0	-101.5677643	48.28342056	-320.8029175	1.0
35	-2.749800205	0	0	-103.2698593	47.86817551	-322.5417786	1.0
[RightHand]
28	-2.295179844	0	0	-2.155797958	18.85040665	-199.8108673	1.0
29	-2.295179844	0	0	-1.956705809	19.14901733	-200.145874	1.0
30	-2.295179844	0	0	-1.617159843	19.2026825	-200.1902771	1.0
31	-2.295179844	0	0	-1.696728945	19.49257469	-199.8545837	1.0
32	-2.295179844	0	0	-2.319563866	19.58201218	-199.2248993	1.0
33	-2.295179844	0	0	-1.935131431	19.67543983	-199.3777008	1.0
34	-2.295179844	0	0	-1.876704931	19.51978111	-199.4856873	1.0
35	-2.295179844	0	0	-1.418185711	19.43717575	-199.661026	1.0
[LeftUpLeg]
28	0.9094099998	0	0	-17.24493027	9.664513588	97.03782654	1.0
29	0.9094099998	0	0	-19.99313736	11.52657509	97.24099731	1.0
30	0.9094099998	0	0	-20.69372559	9.105178833	99.32048035	1.0
31	0.9094099998	0	0	-19.45974731	8.3188591	99.90312195	1.0
32	0.9094099998	0	0	-17.68344116	8.769146919	100.2216263	1.0
33	0.9094099998	0	0	-15.10218716	9.212224007	100.6536331	1.0
34	0.9094099998	0	0	-12.11340714	6.476374626	102.399231	1.0
35	0.9094099998	0	0	-10.95534134	6.154127121	101.2923431	1.0
[LeftLeg]
28	0	-4.498080254	0	39.91072845	-6.195399284	82.11042786	1.0
29	0	-4.498080254	0	44.90917206	-8.108099937	79.15901184	1.0
30	0	-4.498080254	0	46.80114365	-9.032611847	71.8249054	1.0
31	0	-4.498080254	0	44.46176147	-7.384232998	73.78530884	1.0
32	0	-4.498080254	0	40.66306305	-6.741669655	76.60461426	1.0
33	0	-4.498080254	0	35.61491013	-3.633948326	82.93326569	1.0
34	0	-4.498080254	0	31.62717247	-2.538645744	83.25001526	1.0
35	0	-4.498080254	0	28.4593029	1.076630116	85.52445984	1.0
[LeftFoot]
28	0	-3.729400158	0	-54.83670807	98.4535141	4.565326691	1.0
29	0	-3.729400158	0	-48.83537292	99.50694275	12.45970154	1.0
30	0	-3.729400158	0	-42.29864502	105.9201889	21.32678223	1.0
31	0	-3.729400158	0	-37.53923798	104.2207108	25.14682388	1.0
32	0	-3.729400158	0	-26.6558075	101.9279251	33.57662582	1.0
33	0	-3.729400158	0	-51.04153442	98.95615387	5.549285889	1.0
34	0	-3.729400158	0	-17.80503654	100.6407394	36.00697327	1.0
35	0	-3.729400158	0	-43.92438126	108.7959442	7.41292572	1.0
[LeftToeBase]
28	0	-0.5911099911	1.364109993	0	0	0	1.0
29	0	-0.5911099911	1.364109993	0	0	0	1.0
30	0	-0.5911099911	1.364109993	0	0	0	1.0
31	0	-0.5911099911	1.364109993	0	0	0	1.0
32	0	-0.5911099911	1.364109993	0	0	0	1.0
33	0	-0.5911099911	1.364109993	0	0	0	1.0
34	0	-0.5911099911	1.364109993	0	0	0	1.0
35	0	-0.5911099911	1.364109993	0	0	0	1.0
[RightUpLeg]
28	-0.9094099998	0	0	-22.79184151	-13.21931458	92.26881409	1.0
29	-0.9094099998	0	0	-24.89603233	-11.70097256	89.88766479	1.0
30	-0.9094099998	0	0	-26.16945648	-10.51588345	88.21957397	1.0
31	-0.9094099998	0	0	-26.76874924	-10.48735905	88.15706635	1.0
32	-0.9094099998	0	0	-26.98083115	-11.02349281	88.96924591	1.0
33	-0.9094099998	0	0	-25.44583893	-13.54679203	91.37240601	1.0
34	-0.9094099998	0	0	-21.87763977	-15.77798557	93.16879272	1.0
35	-0.9094099998	0	0	-17.76734161	-16.55044556	93.26385498	1.0
[RightLeg]
28	0	-4.498080254	0	41.4021225	-3.678546906	72.57624817	1.0
29	0	-4.498080254	0	44.99304199	1.287002921	76.35118103	1.0
30	0	-4.498080254	0	48.02926254	3.544556141	78.04290009	1.0
31	0	-4.498080254	0	50.04268265	4.63702631	78.14326477	1.0
32	0	-4.498080254	0	50.86643982	5.948458672	79.37231445	1.0
33	0	-4.498080254	0	49.04700851	6.713674068	78.62997437	1.0
34	0	-4.498080254	0	45.9383049	7.109507561	79.12419128	1.0
35	0	-4.498080254	0	41.28277588	6.834297657	81.37400818	1.0
[RightFoot]
28	0	-3.729400158	0	66.70774078	55.29724503	112.4189529	1.0
29	0	-3.729400158	0	68.21190643	52.1426506	113.8000946	1.0
30	0	-3.729400158	0	70.9881897	50.53262329	117.8011475	1.0
31	0	-3.729400158	0	72.89595795	50.37695313	119.5356293	1.0
32	0	-3.729400158	0	72.79030609	51.92310333	119.00737	1.0
33	0	-3.729400158	0	72.86192322	53.58249283	119.008316	1.0
34	0	-3.729400158	0	71.19096375	54.89537048	117.9595413	1.0
35	0	-3.729400158	0	67.43583679	56.55373764	113.8610916	1.0
[RightToeBase]
28	0	-0.5911099911	1.364109993	0	0	0	1.0
29	0	-0.5911099911	1.364109993	0	0	0	1.0
30	0	-0.5911099911	1.364109993	0	0	0	1.0
31	0	-0.5911099911	1.364109993	0	0	0	1.0
32	0	-0.5911099911	1.364109993	0	0	0	1.0
33	0	-0.5911099911	1.364109993	0	0	0	1.0
34	0	-0.5911099911	1.364109993	0	0	0	1.0
35	0	-0.5911099911	1.364109993	0	0	0	1.0
[EndOfFile]
